<svg xmlns="http://www.w3.org/2000/svg" viewBox="0 0 1440 320">
  <path fill="#273036" fill-opacity="0.9" d="M0,256L26.7,234.7C53.3,213,107,171,160,149.3C213.3,128,267,128,320,138.7C373.3,149,427,171,480,165.3C533.3,160,587,128,640,101.3C693.3,75,747,53,800,74.7C853.3,96,907,160,960,170.7C1013.3,181,1067,139,1120,138.7C1173.3,139,1227,181,1280,186.7C1333.3,192,1387,160,1413,144L1440,128L1440,320L1413.3,320C1386.7,320,1333,320,1280,320C1226.7,320,1173,320,1120,320C1066.7,320,1013,320,960,320C906.7,320,853,320,800,320C746.7,320,693,320,640,320C586.7,320,533,320,480,320C426.7,320,373,320,320,320C266.7,320,213,320,160,320C106.7,320,53,320,27,320L0,320Z"></path>
</svg>